<svg xmlns="http://www.w3.org/2000/svg" xmlns:xlink="http://www.w3.org/1999/xlink" width="1000" zoomAndPan="magnify" viewBox="0 0 750 374.999991" height="500" preserveAspectRatio="xMidYMid meet" version="1.0"><defs><g/></defs><g fill="#000000" fill-opacity="1"><g transform="translate(5.495625, 202.073218)"><g><path d="M 51.171875 -21.25 L 51.171875 -14.46875 C 51.171875 -14.113281 51.128906 -13.347656 51.046875 -12.171875 C 50.972656 -10.992188 50.859375 -9.800781 50.703125 -8.59375 C 50.554688 -7.382812 50.3125 -6.53125 49.96875 -6.03125 C 49.613281 -5.53125 49.007812 -4.9375 48.15625 -4.25 C 47.300781 -3.570312 46.332031 -2.921875 45.25 -2.296875 C 44.175781 -1.671875 43.125 -1.128906 42.09375 -0.671875 C 41.0625 -0.222656 40.242188 0.0507812 39.640625 0.15625 C 38.378906 0.300781 37.046875 0.421875 35.640625 0.515625 C 34.234375 0.617188 32.925781 0.820312 31.71875 1.125 C 31.71875 1.226562 31.617188 1.28125 31.421875 1.28125 C 27.609375 1.28125 24.15625 0.59375 21.0625 -0.78125 C 17.96875 -2.164062 15.09375 -4.164062 12.4375 -6.78125 C 11.9375 -7.332031 11.382812 -7.882812 10.78125 -8.4375 C 10.175781 -8.988281 9.644531 -9.566406 9.1875 -10.171875 C 8.59375 -11.023438 8.03125 -12.164062 7.5 -13.59375 C 6.96875 -15.03125 6.488281 -16.515625 6.0625 -18.046875 C 5.632812 -19.578125 5.269531 -20.847656 4.96875 -21.859375 C 4.769531 -22.503906 4.519531 -23.328125 4.21875 -24.328125 C 3.914062 -25.335938 3.765625 -26.171875 3.765625 -26.828125 C 3.765625 -27.785156 3.835938 -28.726562 3.984375 -29.65625 C 4.140625 -30.582031 4.316406 -31.5 4.515625 -32.40625 C 5.171875 -35.875 6.078125 -38.875 7.234375 -41.40625 C 8.390625 -43.945312 9.972656 -46.195312 11.984375 -48.15625 C 13.992188 -50.113281 16.582031 -51.875 19.75 -53.4375 C 21.601562 -54.332031 23.421875 -55.066406 25.203125 -55.640625 C 26.992188 -56.222656 28.941406 -56.515625 31.046875 -56.515625 C 33.410156 -56.515625 35.875 -56.222656 38.4375 -55.640625 C 41 -55.066406 43.207031 -54.078125 45.0625 -52.671875 C 45.519531 -52.328125 46.0625 -51.898438 46.6875 -51.390625 C 47.3125 -50.890625 47.625 -50.335938 47.625 -49.734375 C 47.625 -49.378906 47.394531 -48.8125 46.9375 -48.03125 C 46.488281 -47.257812 45.9375 -46.445312 45.28125 -45.59375 C 44.632812 -44.738281 43.984375 -44.019531 43.328125 -43.4375 C 42.679688 -42.863281 42.15625 -42.578125 41.75 -42.578125 C 40.738281 -42.578125 39.691406 -42.816406 38.609375 -43.296875 C 37.535156 -43.773438 36.472656 -44.238281 35.421875 -44.6875 C 34.367188 -45.132812 33.3125 -45.359375 32.25 -45.359375 C 30.695312 -45.359375 29.015625 -44.992188 27.203125 -44.265625 C 25.390625 -43.546875 23.726562 -42.59375 22.21875 -41.40625 C 20.71875 -40.226562 19.640625 -38.910156 18.984375 -37.453125 C 18.835938 -37.097656 18.6875 -36.351562 18.53125 -35.21875 C 18.382812 -34.09375 18.257812 -32.941406 18.15625 -31.765625 C 18.0625 -30.585938 18.015625 -29.769531 18.015625 -29.3125 C 18.015625 -28.3125 18.085938 -27.320312 18.234375 -26.34375 C 18.390625 -25.363281 18.566406 -24.367188 18.765625 -23.359375 C 19.171875 -21.097656 19.734375 -19.25 20.453125 -17.8125 C 21.179688 -16.382812 22.210938 -15.226562 23.546875 -14.34375 C 24.878906 -13.46875 26.675781 -12.707031 28.9375 -12.0625 C 29.644531 -11.851562 30.335938 -11.648438 31.015625 -11.453125 C 31.691406 -11.253906 32.378906 -11.15625 33.078125 -11.15625 C 33.785156 -11.15625 34.539062 -11.21875 35.34375 -11.34375 C 36.144531 -11.46875 36.832031 -11.742188 37.40625 -12.171875 C 37.988281 -12.597656 38.253906 -13.238281 38.203125 -14.09375 L 38.203125 -16.65625 C 38.148438 -18.257812 37.921875 -19.390625 37.515625 -20.046875 C 37.117188 -20.703125 36.609375 -21.050781 35.984375 -21.09375 C 35.359375 -21.144531 34.691406 -21.09375 33.984375 -20.9375 C 33.285156 -20.789062 32.609375 -20.726562 31.953125 -20.75 C 31.296875 -20.78125 30.742188 -21.097656 30.296875 -21.703125 C 30.046875 -22.054688 29.867188 -22.707031 29.765625 -23.65625 C 29.660156 -24.613281 29.609375 -25.609375 29.609375 -26.640625 C 29.609375 -27.671875 29.609375 -28.410156 29.609375 -28.859375 C 29.609375 -30.210938 29.785156 -31.101562 30.140625 -31.53125 C 30.492188 -31.957031 31.375 -32.171875 32.78125 -32.171875 C 33.132812 -32.171875 33.910156 -32.144531 35.109375 -32.09375 C 36.316406 -32.050781 37.695312 -31.976562 39.25 -31.875 C 40.8125 -31.769531 42.347656 -31.65625 43.859375 -31.53125 C 45.367188 -31.40625 46.632812 -31.265625 47.65625 -31.109375 C 48.6875 -30.960938 49.28125 -30.84375 49.4375 -30.75 C 49.6875 -30.539062 49.921875 -30.007812 50.140625 -29.15625 C 50.367188 -28.3125 50.554688 -27.359375 50.703125 -26.296875 C 50.859375 -25.242188 50.972656 -24.238281 51.046875 -23.28125 C 51.128906 -22.332031 51.171875 -21.65625 51.171875 -21.25 Z M 51.171875 -21.25 "/></g></g></g><g fill="#000000" fill-opacity="1"><g transform="translate(60.728092, 202.073218)"><g><path d="M 39.1875 0.296875 C 38.78125 0.296875 38.351562 0.269531 37.90625 0.21875 C 37.457031 0.175781 37.03125 0.03125 36.625 -0.21875 C 35.914062 -0.675781 35.1875 -1.546875 34.4375 -2.828125 C 33.6875 -4.109375 32.945312 -5.578125 32.21875 -7.234375 C 31.488281 -8.890625 30.796875 -10.535156 30.140625 -12.171875 C 29.492188 -13.804688 28.878906 -15.238281 28.296875 -16.46875 C 27.722656 -17.695312 27.234375 -18.515625 26.828125 -18.921875 C 26.523438 -19.222656 26.007812 -19.472656 25.28125 -19.671875 C 24.550781 -19.867188 23.796875 -20.015625 23.015625 -20.109375 C 22.242188 -20.210938 21.628906 -20.265625 21.171875 -20.265625 C 20.316406 -20.265625 19.890625 -19.765625 19.890625 -18.765625 C 19.890625 -17.203125 20.023438 -15.65625 20.296875 -14.125 C 20.578125 -12.59375 20.71875 -11.023438 20.71875 -9.421875 C 20.71875 -8.960938 20.679688 -8.242188 20.609375 -7.265625 C 20.535156 -6.285156 20.410156 -5.242188 20.234375 -4.140625 C 20.054688 -3.035156 19.84375 -2.039062 19.59375 -1.15625 C 19.34375 -0.28125 19.066406 0.28125 18.765625 0.53125 C 18.566406 0.675781 18.316406 0.773438 18.015625 0.828125 C 17.710938 0.878906 17.4375 0.90625 17.1875 0.90625 C 16.632812 0.90625 15.800781 0.890625 14.6875 0.859375 C 13.582031 0.835938 12.425781 0.722656 11.21875 0.515625 C 10.019531 0.316406 8.992188 0.0195312 8.140625 -0.375 C 7.285156 -0.78125 6.859375 -1.359375 6.859375 -2.109375 C 6.859375 -3.710938 6.921875 -5.289062 7.046875 -6.84375 C 7.171875 -8.40625 7.234375 -9.96875 7.234375 -11.53125 C 7.234375 -12.582031 7.195312 -13.632812 7.125 -14.6875 C 7.050781 -15.75 7.015625 -16.804688 7.015625 -17.859375 C 7.015625 -19.515625 7.050781 -21.144531 7.125 -22.75 C 7.195312 -24.363281 7.179688 -26 7.078125 -27.65625 C 7.035156 -29.21875 6.882812 -30.773438 6.625 -32.328125 C 6.375 -33.890625 6.148438 -35.445312 5.953125 -37 C 5.703125 -39.257812 5.601562 -41.832031 5.65625 -44.71875 C 5.707031 -47.613281 5.734375 -50.289062 5.734375 -52.75 C 5.734375 -53.207031 5.742188 -53.757812 5.765625 -54.40625 C 5.785156 -55.0625 5.972656 -55.539062 6.328125 -55.84375 C 6.679688 -56.144531 7.394531 -56.359375 8.46875 -56.484375 C 9.550781 -56.609375 10.734375 -56.679688 12.015625 -56.703125 C 13.296875 -56.734375 14.414062 -56.734375 15.375 -56.703125 C 16.332031 -56.679688 16.882812 -56.671875 17.03125 -56.671875 C 18.6875 -56.671875 20.367188 -56.617188 22.078125 -56.515625 C 23.785156 -56.421875 25.46875 -56.320312 27.125 -56.21875 C 29.59375 -56.0625 31.804688 -55.796875 33.765625 -55.421875 C 35.722656 -55.046875 37.578125 -54.429688 39.328125 -53.578125 C 41.085938 -52.722656 42.847656 -51.441406 44.609375 -49.734375 C 45.109375 -49.285156 45.582031 -48.832031 46.03125 -48.375 C 46.488281 -47.925781 46.867188 -47.398438 47.171875 -46.796875 C 47.523438 -46.140625 47.765625 -45.421875 47.890625 -44.640625 C 48.015625 -43.867188 48.175781 -43.128906 48.375 -42.421875 C 48.53125 -41.816406 48.695312 -41.160156 48.875 -40.453125 C 49.050781 -39.753906 49.140625 -39.109375 49.140625 -38.515625 C 49.140625 -37.660156 48.988281 -36.789062 48.6875 -35.90625 C 48.382812 -35.03125 48.109375 -34.191406 47.859375 -33.390625 C 47.597656 -32.628906 47.351562 -31.875 47.125 -31.125 C 46.90625 -30.375 46.570312 -29.671875 46.125 -29.015625 C 45.664062 -28.359375 44.984375 -27.628906 44.078125 -26.828125 C 43.179688 -26.023438 42.34375 -25.21875 41.5625 -24.40625 C 40.78125 -23.601562 40.390625 -22.828125 40.390625 -22.078125 C 40.390625 -21.578125 40.648438 -20.722656 41.171875 -19.515625 C 41.703125 -18.304688 42.382812 -16.910156 43.21875 -15.328125 C 44.050781 -13.753906 44.914062 -12.132812 45.8125 -10.46875 C 46.71875 -8.8125 47.582031 -7.253906 48.40625 -5.796875 C 49.238281 -4.347656 49.921875 -3.128906 50.453125 -2.140625 C 50.984375 -1.160156 51.25 -0.597656 51.25 -0.453125 C 51.09375 -0.296875 50.5 -0.179688 49.46875 -0.109375 C 48.4375 -0.0351562 47.21875 0.0351562 45.8125 0.109375 C 44.40625 0.179688 43.085938 0.226562 41.859375 0.25 C 40.628906 0.28125 39.738281 0.296875 39.1875 0.296875 Z M 25.09375 -29.765625 C 25.34375 -29.765625 25.878906 -29.863281 26.703125 -30.0625 C 27.535156 -30.269531 28.453125 -30.535156 29.453125 -30.859375 C 30.460938 -31.179688 31.359375 -31.492188 32.140625 -31.796875 C 32.921875 -32.097656 33.382812 -32.328125 33.53125 -32.484375 C 33.882812 -32.679688 34.238281 -33.171875 34.59375 -33.953125 C 34.945312 -34.734375 35.257812 -35.5625 35.53125 -36.4375 C 35.8125 -37.3125 35.953125 -37.925781 35.953125 -38.28125 C 35.953125 -38.6875 35.773438 -39.265625 35.421875 -40.015625 C 35.066406 -40.765625 34.660156 -41.503906 34.203125 -42.234375 C 33.753906 -42.960938 33.351562 -43.429688 33 -43.640625 C 32.707031 -43.785156 32.003906 -43.957031 30.890625 -44.15625 C 29.785156 -44.363281 28.515625 -44.550781 27.078125 -44.71875 C 25.648438 -44.894531 24.347656 -45.046875 23.171875 -45.171875 C 21.992188 -45.296875 21.175781 -45.359375 20.71875 -45.359375 C 20.375 -45.359375 20.070312 -45.234375 19.8125 -44.984375 C 19.664062 -44.679688 19.59375 -44.332031 19.59375 -43.9375 C 19.59375 -42.320312 19.679688 -40.6875 19.859375 -39.03125 C 20.035156 -37.375 20.148438 -35.742188 20.203125 -34.140625 C 20.296875 -32.734375 20.414062 -31.710938 20.5625 -31.078125 C 20.71875 -30.453125 21.132812 -30.078125 21.8125 -29.953125 C 22.488281 -29.828125 23.582031 -29.765625 25.09375 -29.765625 Z M 25.09375 -29.765625 "/></g></g></g><g fill="#000000" fill-opacity="1"><g transform="translate(114.076791, 202.073218)"><g><path d="M 29.84375 0 L 24.640625 0 C 23.035156 0 21.414062 0.109375 19.78125 0.328125 C 18.144531 0.554688 16.523438 0.671875 14.921875 0.671875 C 14.472656 0.671875 13.769531 0.660156 12.8125 0.640625 C 11.851562 0.617188 10.867188 0.539062 9.859375 0.40625 C 8.859375 0.28125 8.003906 0.0703125 7.296875 -0.21875 C 6.597656 -0.519531 6.25 -0.972656 6.25 -1.578125 C 6.25 -2.785156 6.398438 -4.003906 6.703125 -5.234375 C 7.003906 -6.460938 7.15625 -7.679688 7.15625 -8.890625 C 7.15625 -10.597656 7.003906 -12.28125 6.703125 -13.9375 C 6.398438 -15.59375 6.25 -17.273438 6.25 -18.984375 C 6.25 -22.097656 6.410156 -25.238281 6.734375 -28.40625 C 7.066406 -31.570312 7.234375 -34.710938 7.234375 -37.828125 C 7.234375 -39.179688 7.195312 -40.523438 7.125 -41.859375 C 7.050781 -43.191406 7.015625 -44.535156 7.015625 -45.890625 C 7.015625 -46.742188 7.023438 -47.570312 7.046875 -48.375 C 7.066406 -49.1875 7.101562 -49.992188 7.15625 -50.796875 C 7.15625 -51.296875 7.15625 -52.046875 7.15625 -53.046875 C 7.15625 -54.054688 7.332031 -54.738281 7.6875 -55.09375 C 7.9375 -55.34375 8.3125 -55.515625 8.8125 -55.609375 C 9.820312 -55.710938 10.828125 -55.75 11.828125 -55.71875 C 12.835938 -55.695312 13.84375 -55.710938 14.84375 -55.765625 C 18.71875 -56.015625 22.640625 -56.210938 26.609375 -56.359375 C 30.578125 -56.515625 34.492188 -56.59375 38.359375 -56.59375 C 39.710938 -56.59375 40.664062 -56.503906 41.21875 -56.328125 C 41.769531 -56.148438 42.082031 -55.757812 42.15625 -55.15625 C 42.238281 -54.5625 42.28125 -53.609375 42.28125 -52.296875 C 42.28125 -50.234375 42.238281 -48.695312 42.15625 -47.6875 C 42.082031 -46.6875 41.65625 -46.007812 40.875 -45.65625 C 40.101562 -45.3125 38.660156 -45.113281 36.546875 -45.0625 C 34.441406 -45.007812 32.34375 -44.984375 30.25 -44.984375 C 28.164062 -44.984375 26.070312 -44.984375 23.96875 -44.984375 C 23.363281 -44.984375 22.695312 -44.984375 21.96875 -44.984375 C 21.238281 -44.984375 20.609375 -44.84375 20.078125 -44.5625 C 19.554688 -44.289062 19.296875 -43.726562 19.296875 -42.875 C 19.296875 -40.769531 19.394531 -39.113281 19.59375 -37.90625 C 19.789062 -36.695312 20.21875 -35.828125 20.875 -35.296875 C 21.53125 -34.773438 22.472656 -34.4375 23.703125 -34.28125 C 24.929688 -34.132812 26.550781 -34.0625 28.5625 -34.0625 C 30.019531 -34.0625 31.460938 -34.195312 32.890625 -34.46875 C 34.328125 -34.75 35.75 -34.890625 37.15625 -34.890625 C 37.851562 -34.890625 38.328125 -34.460938 38.578125 -33.609375 C 38.828125 -32.753906 38.953125 -31.8125 38.953125 -30.78125 C 38.953125 -29.75 38.953125 -28.984375 38.953125 -28.484375 C 38.953125 -27.828125 38.941406 -27.097656 38.921875 -26.296875 C 38.898438 -25.492188 38.5625 -24.890625 37.90625 -24.484375 C 37.15625 -23.984375 36.050781 -23.695312 34.59375 -23.625 C 33.132812 -23.550781 31.550781 -23.523438 29.84375 -23.546875 C 28.132812 -23.578125 26.5 -23.539062 24.9375 -23.4375 C 23.382812 -23.332031 22.101562 -23.03125 21.09375 -22.53125 C 20.09375 -22.03125 19.59375 -21.203125 19.59375 -20.046875 C 19.59375 -17.734375 19.628906 -15.972656 19.703125 -14.765625 C 19.773438 -13.566406 20.035156 -12.738281 20.484375 -12.28125 C 20.941406 -11.832031 21.734375 -11.59375 22.859375 -11.5625 C 23.992188 -11.539062 25.59375 -11.53125 27.65625 -11.53125 C 28.957031 -11.53125 30.3125 -11.46875 31.71875 -11.34375 C 33.132812 -11.21875 34.492188 -11.101562 35.796875 -11 C 36.648438 -10.945312 37.550781 -10.894531 38.5 -10.84375 C 39.457031 -10.800781 40.3125 -10.585938 41.0625 -10.203125 C 41.820312 -9.828125 42.273438 -9.113281 42.421875 -8.0625 C 42.628906 -7.0625 42.804688 -6.054688 42.953125 -5.046875 C 43.109375 -4.046875 43.1875 -3.015625 43.1875 -1.953125 C 43.1875 -1.304688 42.804688 -0.816406 42.046875 -0.484375 C 41.296875 -0.160156 40.328125 0.046875 39.140625 0.140625 C 37.960938 0.242188 36.742188 0.28125 35.484375 0.25 C 34.234375 0.226562 33.09375 0.179688 32.0625 0.109375 C 31.03125 0.0351562 30.289062 0 29.84375 0 Z M 29.84375 0 "/></g></g></g><g fill="#000000" fill-opacity="1"><g transform="translate(161.548085, 202.073218)"><g><path d="M 24.484375 -13.484375 C 24.140625 -13.484375 23.585938 -13.421875 22.828125 -13.296875 C 22.078125 -13.171875 21.335938 -13.03125 20.609375 -12.875 C 19.878906 -12.726562 19.335938 -12.582031 18.984375 -12.4375 C 18.179688 -12.082031 17.53125 -11.425781 17.03125 -10.46875 C 16.53125 -9.519531 16.101562 -8.441406 15.75 -7.234375 C 15.394531 -6.023438 15.003906 -4.851562 14.578125 -3.71875 C 14.148438 -2.59375 13.609375 -1.65625 12.953125 -0.90625 C 12.304688 -0.15625 11.429688 0.21875 10.328125 0.21875 C 9.972656 0.21875 9.28125 0.191406 8.25 0.140625 C 7.21875 0.0976562 6.132812 0.00390625 5 -0.140625 C 3.875 -0.296875 2.894531 -0.507812 2.0625 -0.78125 C 1.238281 -1.0625 0.828125 -1.453125 0.828125 -1.953125 C 0.828125 -2.609375 1.003906 -3.550781 1.359375 -4.78125 C 1.710938 -6.007812 2.148438 -7.335938 2.671875 -8.765625 C 3.203125 -10.203125 3.71875 -11.597656 4.21875 -12.953125 C 4.71875 -14.316406 5.117188 -15.453125 5.421875 -16.359375 C 5.972656 -18.210938 6.347656 -20.09375 6.546875 -22 C 6.753906 -23.914062 7.082031 -25.800781 7.53125 -27.65625 C 8.539062 -31.726562 9.671875 -35.796875 10.921875 -39.859375 C 12.179688 -43.929688 13.566406 -47.925781 15.078125 -51.84375 C 15.273438 -52.394531 15.523438 -53.019531 15.828125 -53.71875 C 16.128906 -54.425781 16.503906 -55.054688 16.953125 -55.609375 C 17.410156 -56.160156 17.988281 -56.4375 18.6875 -56.4375 C 19.238281 -56.4375 20.191406 -56.425781 21.546875 -56.40625 C 22.910156 -56.382812 24.394531 -56.347656 26 -56.296875 C 27.601562 -56.242188 29.019531 -56.15625 30.25 -56.03125 C 31.488281 -55.90625 32.234375 -55.742188 32.484375 -55.546875 C 32.734375 -55.335938 32.96875 -54.84375 33.1875 -54.0625 C 33.414062 -53.289062 33.644531 -52.425781 33.875 -51.46875 C 34.101562 -50.507812 34.300781 -49.601562 34.46875 -48.75 C 34.644531 -47.894531 34.8125 -47.269531 34.96875 -46.875 C 35.519531 -45.3125 36.144531 -43.765625 36.84375 -42.234375 C 37.550781 -40.703125 38.207031 -39.132812 38.8125 -37.53125 C 39.414062 -35.925781 39.953125 -34.289062 40.421875 -32.625 C 40.898438 -30.96875 41.367188 -29.3125 41.828125 -27.65625 C 42.273438 -26.050781 42.925781 -24.066406 43.78125 -21.703125 C 44.632812 -19.335938 45.535156 -16.875 46.484375 -14.3125 C 47.441406 -11.75 48.25 -9.335938 48.90625 -7.078125 C 49.5625 -4.816406 49.890625 -2.957031 49.890625 -1.5 C 49.890625 -0.90625 49.398438 -0.476562 48.421875 -0.21875 C 47.441406 0.03125 46.285156 0.15625 44.953125 0.15625 C 43.617188 0.15625 42.4375 0.128906 41.40625 0.078125 C 40.375 0.0234375 39.785156 0 39.640625 0 C 39.140625 0 38.613281 -0.0078125 38.0625 -0.03125 C 37.507812 -0.0625 37.03125 -0.300781 36.625 -0.75 C 36.269531 -1.15625 35.976562 -1.875 35.75 -2.90625 C 35.53125 -3.9375 35.296875 -5.066406 35.046875 -6.296875 C 34.796875 -7.523438 34.53125 -8.65625 34.25 -9.6875 C 33.976562 -10.71875 33.640625 -11.429688 33.234375 -11.828125 C 32.828125 -12.285156 32.035156 -12.625 30.859375 -12.84375 C 29.679688 -13.070312 28.488281 -13.234375 27.28125 -13.328125 C 26.070312 -13.429688 25.140625 -13.484375 24.484375 -13.484375 Z M 20.65625 -23.359375 L 27.734375 -23.359375 C 28.128906 -23.359375 28.59375 -23.394531 29.125 -23.46875 C 29.65625 -23.550781 30.019531 -23.816406 30.21875 -24.265625 C 30.21875 -25.066406 30.09375 -25.921875 29.84375 -26.828125 C 29.394531 -28.429688 28.828125 -30 28.140625 -31.53125 C 27.460938 -33.070312 26.925781 -34.617188 26.53125 -36.171875 C 26.175781 -37.472656 25.921875 -38.789062 25.765625 -40.125 C 25.617188 -41.457031 25.296875 -42.726562 24.796875 -43.9375 C 24.691406 -43.738281 24.410156 -42.945312 23.953125 -41.5625 C 23.503906 -40.175781 22.976562 -38.53125 22.375 -36.625 C 21.78125 -34.71875 21.179688 -32.820312 20.578125 -30.9375 C 19.972656 -29.050781 19.476562 -27.46875 19.09375 -26.1875 C 18.71875 -24.90625 18.53125 -24.210938 18.53125 -24.109375 C 18.53125 -23.765625 18.816406 -23.550781 19.390625 -23.46875 C 19.972656 -23.394531 20.394531 -23.359375 20.65625 -23.359375 Z M 20.65625 -23.359375 "/></g></g></g><g fill="#000000" fill-opacity="1"><g transform="translate(211.279913, 202.073218)"><g><path d="M 31.578125 -25.25 L 31.578125 -17.859375 C 31.578125 -16.453125 31.488281 -14.992188 31.3125 -13.484375 C 31.132812 -11.984375 30.992188 -10.503906 30.890625 -9.046875 C 30.890625 -8.992188 30.863281 -8.523438 30.8125 -7.640625 C 30.769531 -6.765625 30.671875 -5.734375 30.515625 -4.546875 C 30.367188 -3.367188 30.179688 -2.289062 29.953125 -1.3125 C 29.722656 -0.332031 29.4375 0.253906 29.09375 0.453125 C 28.84375 0.597656 28.566406 0.695312 28.265625 0.75 C 27.960938 0.800781 27.6875 0.828125 27.4375 0.828125 C 24.820312 0.828125 22.179688 0.550781 19.515625 0 C 18.304688 -0.300781 17.515625 -0.988281 17.140625 -2.0625 C 16.765625 -3.144531 16.601562 -4.351562 16.65625 -5.6875 C 16.707031 -7.019531 16.734375 -8.164062 16.734375 -9.125 C 16.734375 -11.832031 16.707031 -14.539062 16.65625 -17.25 C 16.601562 -19.96875 16.578125 -22.679688 16.578125 -25.390625 C 16.578125 -27.554688 16.738281 -29.691406 17.0625 -31.796875 C 17.394531 -33.910156 17.5625 -36.046875 17.5625 -38.203125 C 17.5625 -40.265625 17.535156 -41.785156 17.484375 -42.765625 C 17.429688 -43.742188 17.191406 -44.367188 16.765625 -44.640625 C 16.335938 -44.921875 15.570312 -45.035156 14.46875 -44.984375 C 13.363281 -44.941406 11.78125 -44.921875 9.71875 -44.921875 C 9.0625 -44.921875 8.269531 -44.878906 7.34375 -44.796875 C 6.414062 -44.722656 5.5 -44.710938 4.59375 -44.765625 C 3.6875 -44.816406 2.929688 -45.039062 2.328125 -45.4375 C 1.734375 -45.84375 1.4375 -46.5 1.4375 -47.40625 C 1.4375 -47.90625 1.457031 -48.617188 1.5 -49.546875 C 1.550781 -50.472656 1.664062 -51.425781 1.84375 -52.40625 C 2.019531 -53.382812 2.296875 -54.222656 2.671875 -54.921875 C 3.046875 -55.628906 3.5625 -55.984375 4.21875 -55.984375 C 5.269531 -55.984375 6.335938 -55.929688 7.421875 -55.828125 C 8.503906 -55.734375 9.570312 -55.6875 10.625 -55.6875 C 12.382812 -55.6875 14.15625 -55.847656 15.9375 -56.171875 C 17.71875 -56.503906 19.460938 -56.671875 21.171875 -56.671875 L 28.9375 -56.671875 C 31 -56.671875 33.070312 -56.617188 35.15625 -56.515625 C 37.238281 -56.421875 39.3125 -56.320312 41.375 -56.21875 C 41.875 -56.21875 42.515625 -56.175781 43.296875 -56.09375 C 44.078125 -56.019531 44.617188 -55.757812 44.921875 -55.3125 C 45.210938 -54.90625 45.429688 -54.160156 45.578125 -53.078125 C 45.734375 -52.003906 45.835938 -50.898438 45.890625 -49.765625 C 45.941406 -48.640625 45.96875 -47.800781 45.96875 -47.25 C 45.96875 -46.25 45.738281 -45.597656 45.28125 -45.296875 C 44.832031 -44.992188 44.269531 -44.878906 43.59375 -44.953125 C 42.914062 -45.023438 42.203125 -45.0625 41.453125 -45.0625 C 41.097656 -45.0625 40.441406 -45.0625 39.484375 -45.0625 C 38.535156 -45.0625 37.503906 -45.035156 36.390625 -44.984375 C 35.285156 -44.941406 34.304688 -44.832031 33.453125 -44.65625 C 32.597656 -44.476562 32.046875 -44.238281 31.796875 -43.9375 C 31.453125 -43.476562 31.226562 -42.820312 31.125 -41.96875 C 31.019531 -41.113281 30.941406 -40.410156 30.890625 -39.859375 C 30.847656 -39.109375 30.757812 -38.332031 30.625 -37.53125 C 30.5 -36.726562 30.4375 -35.945312 30.4375 -35.1875 C 30.4375 -33.53125 30.625 -31.882812 31 -30.25 C 31.382812 -28.625 31.578125 -26.957031 31.578125 -25.25 Z M 31.578125 -25.25 "/></g></g></g><g fill="#000000" fill-opacity="1"><g transform="translate(259.504719, 202.073218)"><g/></g></g><g fill="#000000" fill-opacity="1"><g transform="translate(297.180346, 202.073218)"><g><path d="M 50.484375 -12.8125 L 50.71875 -12.8125 C 50.863281 -12.8125 50.988281 -13.113281 51.09375 -13.71875 C 51.195312 -14.320312 51.25 -14.671875 51.25 -14.765625 C 51.550781 -16.679688 51.890625 -18.554688 52.265625 -20.390625 C 52.640625 -22.222656 52.898438 -24.117188 53.046875 -26.078125 C 53.253906 -28.179688 53.546875 -30.285156 53.921875 -32.390625 C 54.296875 -34.503906 54.554688 -36.617188 54.703125 -38.734375 C 54.703125 -38.984375 54.703125 -39.671875 54.703125 -40.796875 C 54.703125 -41.929688 54.726562 -43.273438 54.78125 -44.828125 C 54.832031 -46.390625 54.90625 -47.960938 55 -49.546875 C 55.101562 -51.128906 55.28125 -52.507812 55.53125 -53.6875 C 55.789062 -54.875 56.117188 -55.59375 56.515625 -55.84375 C 56.867188 -56.09375 57.410156 -56.242188 58.140625 -56.296875 C 58.867188 -56.347656 59.617188 -56.375 60.390625 -56.375 C 61.171875 -56.375 61.765625 -56.375 62.171875 -56.375 C 62.722656 -56.375 63.488281 -56.382812 64.46875 -56.40625 C 65.445312 -56.425781 66.335938 -56.3125 67.140625 -56.0625 C 67.941406 -55.8125 68.34375 -55.285156 68.34375 -54.484375 C 68.34375 -50.160156 67.890625 -45.703125 66.984375 -41.109375 C 66.085938 -36.515625 65.210938 -32.15625 64.359375 -28.03125 C 63.859375 -25.570312 63.316406 -23.273438 62.734375 -21.140625 C 62.160156 -19.003906 61.796875 -16.679688 61.640625 -14.171875 C 61.585938 -13.410156 61.550781 -12.640625 61.53125 -11.859375 C 61.507812 -11.085938 61.445312 -10.328125 61.34375 -9.578125 C 61.34375 -9.472656 61.300781 -8.914062 61.21875 -7.90625 C 61.144531 -6.90625 61.007812 -5.773438 60.8125 -4.515625 C 60.613281 -3.265625 60.328125 -2.171875 59.953125 -1.234375 C 59.578125 -0.304688 59.085938 0.15625 58.484375 0.15625 C 58.128906 0.15625 57.398438 0.113281 56.296875 0.03125 C 55.191406 -0.0390625 53.921875 -0.125 52.484375 -0.21875 C 51.054688 -0.320312 49.660156 -0.421875 48.296875 -0.515625 C 46.941406 -0.617188 45.8125 -0.707031 44.90625 -0.78125 C 44.007812 -0.863281 43.535156 -0.929688 43.484375 -0.984375 C 43.285156 -1.128906 43.019531 -1.664062 42.6875 -2.59375 C 42.363281 -3.53125 42 -4.675781 41.59375 -6.03125 C 41.195312 -7.382812 40.804688 -8.765625 40.421875 -10.171875 C 40.046875 -11.578125 39.71875 -12.832031 39.4375 -13.9375 C 39.164062 -15.039062 38.984375 -15.820312 38.890625 -16.28125 C 38.429688 -18.238281 38.113281 -20.242188 37.9375 -22.296875 C 37.757812 -24.359375 37.519531 -26.40625 37.21875 -28.4375 C 36.925781 -30.476562 36.398438 -32.453125 35.640625 -34.359375 C 34.941406 -32.953125 34.328125 -31.269531 33.796875 -29.3125 C 33.265625 -27.351562 32.851562 -25.570312 32.5625 -23.96875 C 32.40625 -23.164062 32.238281 -21.921875 32.0625 -20.234375 C 31.882812 -18.546875 31.65625 -16.660156 31.375 -14.578125 C 31.101562 -12.492188 30.789062 -10.457031 30.4375 -8.46875 C 30.09375 -6.488281 29.691406 -4.757812 29.234375 -3.28125 C 28.785156 -1.800781 28.257812 -0.859375 27.65625 -0.453125 C 27.40625 -0.253906 26.890625 -0.09375 26.109375 0.03125 C 25.328125 0.15625 24.457031 0.269531 23.5 0.375 C 22.550781 0.476562 21.660156 0.550781 20.828125 0.59375 C 20.003906 0.644531 19.390625 0.671875 18.984375 0.671875 C 18.535156 0.671875 17.734375 0.632812 16.578125 0.5625 C 15.421875 0.488281 14.289062 0.347656 13.1875 0.140625 C 12.082031 -0.0546875 11.378906 -0.28125 11.078125 -0.53125 C 10.929688 -0.675781 10.816406 -0.882812 10.734375 -1.15625 C 10.660156 -1.4375 10.597656 -1.679688 10.546875 -1.890625 C 10.347656 -3.046875 10.207031 -4.210938 10.125 -5.390625 C 10.050781 -6.566406 9.941406 -7.707031 9.796875 -8.8125 C 9.597656 -10.425781 9.257812 -12.035156 8.78125 -13.640625 C 8.300781 -15.242188 7.859375 -16.828125 7.453125 -18.390625 C 6.753906 -21.398438 6.316406 -24.523438 6.140625 -27.765625 C 5.960938 -31.003906 5.445312 -34.132812 4.59375 -37.15625 C 4.195312 -38.707031 3.722656 -40.5 3.171875 -42.53125 C 2.617188 -44.570312 2.140625 -46.617188 1.734375 -48.671875 C 1.328125 -50.734375 1.125 -52.546875 1.125 -54.109375 C 1.125 -54.859375 1.550781 -55.285156 2.40625 -55.390625 C 3.363281 -55.492188 4.296875 -55.53125 5.203125 -55.5 C 6.109375 -55.476562 7.035156 -55.492188 7.984375 -55.546875 C 8.992188 -55.640625 10.023438 -55.8125 11.078125 -56.0625 C 12.128906 -56.3125 13.160156 -56.4375 14.171875 -56.4375 C 14.671875 -56.4375 15.054688 -56.035156 15.328125 -55.234375 C 15.609375 -54.429688 15.8125 -53.503906 15.9375 -52.453125 C 16.0625 -51.398438 16.132812 -50.457031 16.15625 -49.625 C 16.1875 -48.789062 16.203125 -48.328125 16.203125 -48.234375 C 16.304688 -46.671875 16.394531 -45.0625 16.46875 -43.40625 C 16.539062 -41.75 16.675781 -40.117188 16.875 -38.515625 C 17.125 -36.847656 17.515625 -35.222656 18.046875 -33.640625 C 18.578125 -32.066406 18.941406 -30.425781 19.140625 -28.71875 C 19.390625 -26.40625 19.539062 -24.054688 19.59375 -21.671875 C 19.644531 -19.285156 20 -16.957031 20.65625 -14.6875 C 21.65625 -17.207031 22.367188 -19.757812 22.796875 -22.34375 C 23.222656 -24.925781 23.710938 -27.523438 24.265625 -30.140625 C 24.671875 -31.898438 25.210938 -33.707031 25.890625 -35.5625 C 26.566406 -37.425781 26.953125 -39.265625 27.046875 -41.078125 C 27.203125 -43.429688 27.492188 -45.722656 27.921875 -47.953125 C 28.347656 -50.191406 29.113281 -52.394531 30.21875 -54.5625 C 30.519531 -55.164062 30.882812 -55.566406 31.3125 -55.765625 C 31.738281 -55.960938 32.28125 -56.0625 32.9375 -56.0625 C 33.488281 -56.0625 34.289062 -56.046875 35.34375 -56.015625 C 36.394531 -55.992188 37.421875 -55.929688 38.421875 -55.828125 C 39.429688 -55.734375 40.140625 -55.507812 40.546875 -55.15625 C 40.941406 -54.851562 41.273438 -54.1875 41.546875 -53.15625 C 41.828125 -52.132812 42.066406 -51.054688 42.265625 -49.921875 C 42.472656 -48.796875 42.648438 -47.929688 42.796875 -47.328125 C 43.253906 -45.867188 43.785156 -44.4375 44.390625 -43.03125 C 44.992188 -41.625 45.492188 -40.191406 45.890625 -38.734375 C 46.140625 -37.773438 46.316406 -36.804688 46.421875 -35.828125 C 46.523438 -34.847656 46.625 -33.859375 46.71875 -32.859375 C 46.96875 -30.898438 47.40625 -28.976562 48.03125 -27.09375 C 48.664062 -25.207031 49.160156 -23.3125 49.515625 -21.40625 C 49.765625 -20 49.9375 -18.578125 50.03125 -17.140625 C 50.132812 -15.710938 50.285156 -14.269531 50.484375 -12.8125 Z M 50.484375 -12.8125 "/></g></g></g><g fill="#000000" fill-opacity="1"><g transform="translate(367.633787, 202.073218)"><g><path d="M 24.484375 -13.484375 C 24.140625 -13.484375 23.585938 -13.421875 22.828125 -13.296875 C 22.078125 -13.171875 21.335938 -13.03125 20.609375 -12.875 C 19.878906 -12.726562 19.335938 -12.582031 18.984375 -12.4375 C 18.179688 -12.082031 17.53125 -11.425781 17.03125 -10.46875 C 16.53125 -9.519531 16.101562 -8.441406 15.75 -7.234375 C 15.394531 -6.023438 15.003906 -4.851562 14.578125 -3.71875 C 14.148438 -2.59375 13.609375 -1.65625 12.953125 -0.90625 C 12.304688 -0.15625 11.429688 0.21875 10.328125 0.21875 C 9.972656 0.21875 9.28125 0.191406 8.25 0.140625 C 7.21875 0.0976562 6.132812 0.00390625 5 -0.140625 C 3.875 -0.296875 2.894531 -0.507812 2.0625 -0.78125 C 1.238281 -1.0625 0.828125 -1.453125 0.828125 -1.953125 C 0.828125 -2.609375 1.003906 -3.550781 1.359375 -4.78125 C 1.710938 -6.007812 2.148438 -7.335938 2.671875 -8.765625 C 3.203125 -10.203125 3.71875 -11.597656 4.21875 -12.953125 C 4.71875 -14.316406 5.117188 -15.453125 5.421875 -16.359375 C 5.972656 -18.210938 6.347656 -20.09375 6.546875 -22 C 6.753906 -23.914062 7.082031 -25.800781 7.53125 -27.65625 C 8.539062 -31.726562 9.671875 -35.796875 10.921875 -39.859375 C 12.179688 -43.929688 13.566406 -47.925781 15.078125 -51.84375 C 15.273438 -52.394531 15.523438 -53.019531 15.828125 -53.71875 C 16.128906 -54.425781 16.503906 -55.054688 16.953125 -55.609375 C 17.410156 -56.160156 17.988281 -56.4375 18.6875 -56.4375 C 19.238281 -56.4375 20.191406 -56.425781 21.546875 -56.40625 C 22.910156 -56.382812 24.394531 -56.347656 26 -56.296875 C 27.601562 -56.242188 29.019531 -56.15625 30.25 -56.03125 C 31.488281 -55.90625 32.234375 -55.742188 32.484375 -55.546875 C 32.734375 -55.335938 32.96875 -54.84375 33.1875 -54.0625 C 33.414062 -53.289062 33.644531 -52.425781 33.875 -51.46875 C 34.101562 -50.507812 34.300781 -49.601562 34.46875 -48.75 C 34.644531 -47.894531 34.8125 -47.269531 34.96875 -46.875 C 35.519531 -45.3125 36.144531 -43.765625 36.84375 -42.234375 C 37.550781 -40.703125 38.207031 -39.132812 38.8125 -37.53125 C 39.414062 -35.925781 39.953125 -34.289062 40.421875 -32.625 C 40.898438 -30.96875 41.367188 -29.3125 41.828125 -27.65625 C 42.273438 -26.050781 42.925781 -24.066406 43.78125 -21.703125 C 44.632812 -19.335938 45.535156 -16.875 46.484375 -14.3125 C 47.441406 -11.75 48.25 -9.335938 48.90625 -7.078125 C 49.5625 -4.816406 49.890625 -2.957031 49.890625 -1.5 C 49.890625 -0.90625 49.398438 -0.476562 48.421875 -0.21875 C 47.441406 0.03125 46.285156 0.15625 44.953125 0.15625 C 43.617188 0.15625 42.4375 0.128906 41.40625 0.078125 C 40.375 0.0234375 39.785156 0 39.640625 0 C 39.140625 0 38.613281 -0.0078125 38.0625 -0.03125 C 37.507812 -0.0625 37.03125 -0.300781 36.625 -0.75 C 36.269531 -1.15625 35.976562 -1.875 35.75 -2.90625 C 35.53125 -3.9375 35.296875 -5.066406 35.046875 -6.296875 C 34.796875 -7.523438 34.53125 -8.65625 34.25 -9.6875 C 33.976562 -10.71875 33.640625 -11.429688 33.234375 -11.828125 C 32.828125 -12.285156 32.035156 -12.625 30.859375 -12.84375 C 29.679688 -13.070312 28.488281 -13.234375 27.28125 -13.328125 C 26.070312 -13.429688 25.140625 -13.484375 24.484375 -13.484375 Z M 20.65625 -23.359375 L 27.734375 -23.359375 C 28.128906 -23.359375 28.59375 -23.394531 29.125 -23.46875 C 29.65625 -23.550781 30.019531 -23.816406 30.21875 -24.265625 C 30.21875 -25.066406 30.09375 -25.921875 29.84375 -26.828125 C 29.394531 -28.429688 28.828125 -30 28.140625 -31.53125 C 27.460938 -33.070312 26.925781 -34.617188 26.53125 -36.171875 C 26.175781 -37.472656 25.921875 -38.789062 25.765625 -40.125 C 25.617188 -41.457031 25.296875 -42.726562 24.796875 -43.9375 C 24.691406 -43.738281 24.410156 -42.945312 23.953125 -41.5625 C 23.503906 -40.175781 22.976562 -38.53125 22.375 -36.625 C 21.78125 -34.71875 21.179688 -32.820312 20.578125 -30.9375 C 19.972656 -29.050781 19.476562 -27.46875 19.09375 -26.1875 C 18.71875 -24.90625 18.53125 -24.210938 18.53125 -24.109375 C 18.53125 -23.765625 18.816406 -23.550781 19.390625 -23.46875 C 19.972656 -23.394531 20.394531 -23.359375 20.65625 -23.359375 Z M 20.65625 -23.359375 "/></g></g></g><g fill="#000000" fill-opacity="1"><g transform="translate(417.365616, 202.073218)"><g><path d="M 29.3125 0 L 23.96875 0 C 22.40625 0 20.859375 0.109375 19.328125 0.328125 C 17.796875 0.554688 16.226562 0.671875 14.625 0.671875 C 14.164062 0.671875 13.472656 0.660156 12.546875 0.640625 C 11.617188 0.617188 10.664062 0.539062 9.6875 0.40625 C 8.707031 0.28125 7.875 0.046875 7.1875 -0.296875 C 6.507812 -0.648438 6.171875 -1.128906 6.171875 -1.734375 C 6.171875 -3.640625 6.257812 -5.5625 6.4375 -7.5 C 6.613281 -9.4375 6.703125 -11.382812 6.703125 -13.34375 C 6.703125 -16 6.6875 -18.757812 6.65625 -21.625 C 6.632812 -24.488281 6.5 -27.253906 6.25 -29.921875 C 6.15625 -30.972656 6.046875 -32.035156 5.921875 -33.109375 C 5.796875 -34.191406 5.734375 -35.265625 5.734375 -36.328125 C 5.734375 -37.078125 5.769531 -38.242188 5.84375 -39.828125 C 5.914062 -41.410156 6.015625 -43.128906 6.140625 -44.984375 C 6.265625 -46.847656 6.398438 -48.554688 6.546875 -50.109375 C 6.703125 -51.671875 6.832031 -52.800781 6.9375 -53.5 C 7.03125 -54.101562 7.304688 -54.554688 7.765625 -54.859375 C 8.066406 -55.109375 8.664062 -55.320312 9.5625 -55.5 C 10.46875 -55.675781 11.472656 -55.8125 12.578125 -55.90625 C 13.691406 -56.007812 14.722656 -56.097656 15.671875 -56.171875 C 16.628906 -56.253906 17.332031 -56.296875 17.78125 -56.296875 C 18.632812 -56.296875 19.25 -55.941406 19.625 -55.234375 C 20.007812 -54.535156 20.238281 -53.671875 20.3125 -52.640625 C 20.382812 -51.609375 20.40625 -50.578125 20.375 -49.546875 C 20.351562 -48.515625 20.34375 -47.695312 20.34375 -47.09375 C 20.34375 -44.1875 20.21875 -41.300781 19.96875 -38.4375 C 19.71875 -35.570312 19.59375 -32.679688 19.59375 -29.765625 C 19.59375 -27.359375 19.664062 -24.957031 19.8125 -22.5625 C 19.96875 -20.175781 20.046875 -17.78125 20.046875 -15.375 C 20.046875 -14.71875 20.09375 -14.085938 20.1875 -13.484375 C 20.289062 -12.878906 20.671875 -12.429688 21.328125 -12.140625 C 22.628906 -11.535156 24.070312 -11.179688 25.65625 -11.078125 C 27.238281 -10.972656 28.867188 -10.929688 30.546875 -10.953125 C 32.234375 -10.984375 33.878906 -10.9375 35.484375 -10.8125 C 37.097656 -10.6875 38.554688 -10.296875 39.859375 -9.640625 C 40.515625 -9.335938 40.992188 -8.679688 41.296875 -7.671875 C 41.597656 -6.671875 41.796875 -5.628906 41.890625 -4.546875 C 41.992188 -3.472656 42.046875 -2.609375 42.046875 -1.953125 C 42.046875 -1.148438 41.503906 -0.585938 40.421875 -0.265625 C 39.347656 0.0546875 38.046875 0.226562 36.515625 0.25 C 34.984375 0.28125 33.535156 0.242188 32.171875 0.140625 C 30.816406 0.046875 29.863281 0 29.3125 0 Z M 29.3125 0 "/></g></g></g><g fill="#000000" fill-opacity="1"><g transform="translate(462.350296, 202.073218)"><g><path d="M 29.3125 0 L 23.96875 0 C 22.40625 0 20.859375 0.109375 19.328125 0.328125 C 17.796875 0.554688 16.226562 0.671875 14.625 0.671875 C 14.164062 0.671875 13.472656 0.660156 12.546875 0.640625 C 11.617188 0.617188 10.664062 0.539062 9.6875 0.40625 C 8.707031 0.28125 7.875 0.046875 7.1875 -0.296875 C 6.507812 -0.648438 6.171875 -1.128906 6.171875 -1.734375 C 6.171875 -3.640625 6.257812 -5.5625 6.4375 -7.5 C 6.613281 -9.4375 6.703125 -11.382812 6.703125 -13.34375 C 6.703125 -16 6.6875 -18.757812 6.65625 -21.625 C 6.632812 -24.488281 6.5 -27.253906 6.25 -29.921875 C 6.15625 -30.972656 6.046875 -32.035156 5.921875 -33.109375 C 5.796875 -34.191406 5.734375 -35.265625 5.734375 -36.328125 C 5.734375 -37.078125 5.769531 -38.242188 5.84375 -39.828125 C 5.914062 -41.410156 6.015625 -43.128906 6.140625 -44.984375 C 6.265625 -46.847656 6.398438 -48.554688 6.546875 -50.109375 C 6.703125 -51.671875 6.832031 -52.800781 6.9375 -53.5 C 7.03125 -54.101562 7.304688 -54.554688 7.765625 -54.859375 C 8.066406 -55.109375 8.664062 -55.320312 9.5625 -55.5 C 10.46875 -55.675781 11.472656 -55.8125 12.578125 -55.90625 C 13.691406 -56.007812 14.722656 -56.097656 15.671875 -56.171875 C 16.628906 -56.253906 17.332031 -56.296875 17.78125 -56.296875 C 18.632812 -56.296875 19.25 -55.941406 19.625 -55.234375 C 20.007812 -54.535156 20.238281 -53.671875 20.3125 -52.640625 C 20.382812 -51.609375 20.40625 -50.578125 20.375 -49.546875 C 20.351562 -48.515625 20.34375 -47.695312 20.34375 -47.09375 C 20.34375 -44.1875 20.21875 -41.300781 19.96875 -38.4375 C 19.71875 -35.570312 19.59375 -32.679688 19.59375 -29.765625 C 19.59375 -27.359375 19.664062 -24.957031 19.8125 -22.5625 C 19.96875 -20.175781 20.046875 -17.78125 20.046875 -15.375 C 20.046875 -14.71875 20.09375 -14.085938 20.1875 -13.484375 C 20.289062 -12.878906 20.671875 -12.429688 21.328125 -12.140625 C 22.628906 -11.535156 24.070312 -11.179688 25.65625 -11.078125 C 27.238281 -10.972656 28.867188 -10.929688 30.546875 -10.953125 C 32.234375 -10.984375 33.878906 -10.9375 35.484375 -10.8125 C 37.097656 -10.6875 38.554688 -10.296875 39.859375 -9.640625 C 40.515625 -9.335938 40.992188 -8.679688 41.296875 -7.671875 C 41.597656 -6.671875 41.796875 -5.628906 41.890625 -4.546875 C 41.992188 -3.472656 42.046875 -2.609375 42.046875 -1.953125 C 42.046875 -1.148438 41.503906 -0.585938 40.421875 -0.265625 C 39.347656 0.0546875 38.046875 0.226562 36.515625 0.25 C 34.984375 0.28125 33.535156 0.242188 32.171875 0.140625 C 30.816406 0.046875 29.863281 0 29.3125 0 Z M 29.3125 0 "/></g></g></g><g fill="#000000" fill-opacity="1"><g transform="translate(507.335018, 202.073218)"><g/></g></g><g fill="#000000" fill-opacity="1"><g transform="translate(545.010622, 202.073218)"><g><path d="M 24.484375 -13.484375 C 24.140625 -13.484375 23.585938 -13.421875 22.828125 -13.296875 C 22.078125 -13.171875 21.335938 -13.03125 20.609375 -12.875 C 19.878906 -12.726562 19.335938 -12.582031 18.984375 -12.4375 C 18.179688 -12.082031 17.53125 -11.425781 17.03125 -10.46875 C 16.53125 -9.519531 16.101562 -8.441406 15.75 -7.234375 C 15.394531 -6.023438 15.003906 -4.851562 14.578125 -3.71875 C 14.148438 -2.59375 13.609375 -1.65625 12.953125 -0.90625 C 12.304688 -0.15625 11.429688 0.21875 10.328125 0.21875 C 9.972656 0.21875 9.28125 0.191406 8.25 0.140625 C 7.21875 0.0976562 6.132812 0.00390625 5 -0.140625 C 3.875 -0.296875 2.894531 -0.507812 2.0625 -0.78125 C 1.238281 -1.0625 0.828125 -1.453125 0.828125 -1.953125 C 0.828125 -2.609375 1.003906 -3.550781 1.359375 -4.78125 C 1.710938 -6.007812 2.148438 -7.335938 2.671875 -8.765625 C 3.203125 -10.203125 3.71875 -11.597656 4.21875 -12.953125 C 4.71875 -14.316406 5.117188 -15.453125 5.421875 -16.359375 C 5.972656 -18.210938 6.347656 -20.09375 6.546875 -22 C 6.753906 -23.914062 7.082031 -25.800781 7.53125 -27.65625 C 8.539062 -31.726562 9.671875 -35.796875 10.921875 -39.859375 C 12.179688 -43.929688 13.566406 -47.925781 15.078125 -51.84375 C 15.273438 -52.394531 15.523438 -53.019531 15.828125 -53.71875 C 16.128906 -54.425781 16.503906 -55.054688 16.953125 -55.609375 C 17.410156 -56.160156 17.988281 -56.4375 18.6875 -56.4375 C 19.238281 -56.4375 20.191406 -56.425781 21.546875 -56.40625 C 22.910156 -56.382812 24.394531 -56.347656 26 -56.296875 C 27.601562 -56.242188 29.019531 -56.15625 30.25 -56.03125 C 31.488281 -55.90625 32.234375 -55.742188 32.484375 -55.546875 C 32.734375 -55.335938 32.96875 -54.84375 33.1875 -54.0625 C 33.414062 -53.289062 33.644531 -52.425781 33.875 -51.46875 C 34.101562 -50.507812 34.300781 -49.601562 34.46875 -48.75 C 34.644531 -47.894531 34.8125 -47.269531 34.96875 -46.875 C 35.519531 -45.3125 36.144531 -43.765625 36.84375 -42.234375 C 37.550781 -40.703125 38.207031 -39.132812 38.8125 -37.53125 C 39.414062 -35.925781 39.953125 -34.289062 40.421875 -32.625 C 40.898438 -30.96875 41.367188 -29.3125 41.828125 -27.65625 C 42.273438 -26.050781 42.925781 -24.066406 43.78125 -21.703125 C 44.632812 -19.335938 45.535156 -16.875 46.484375 -14.3125 C 47.441406 -11.75 48.25 -9.335938 48.90625 -7.078125 C 49.5625 -4.816406 49.890625 -2.957031 49.890625 -1.5 C 49.890625 -0.90625 49.398438 -0.476562 48.421875 -0.21875 C 47.441406 0.03125 46.285156 0.15625 44.953125 0.15625 C 43.617188 0.15625 42.4375 0.128906 41.40625 0.078125 C 40.375 0.0234375 39.785156 0 39.640625 0 C 39.140625 0 38.613281 -0.0078125 38.0625 -0.03125 C 37.507812 -0.0625 37.03125 -0.300781 36.625 -0.75 C 36.269531 -1.15625 35.976562 -1.875 35.75 -2.90625 C 35.53125 -3.9375 35.296875 -5.066406 35.046875 -6.296875 C 34.796875 -7.523438 34.53125 -8.65625 34.25 -9.6875 C 33.976562 -10.71875 33.640625 -11.429688 33.234375 -11.828125 C 32.828125 -12.285156 32.035156 -12.625 30.859375 -12.84375 C 29.679688 -13.070312 28.488281 -13.234375 27.28125 -13.328125 C 26.070312 -13.429688 25.140625 -13.484375 24.484375 -13.484375 Z M 20.65625 -23.359375 L 27.734375 -23.359375 C 28.128906 -23.359375 28.59375 -23.394531 29.125 -23.46875 C 29.65625 -23.550781 30.019531 -23.816406 30.21875 -24.265625 C 30.21875 -25.066406 30.09375 -25.921875 29.84375 -26.828125 C 29.394531 -28.429688 28.828125 -30 28.140625 -31.53125 C 27.460938 -33.070312 26.925781 -34.617188 26.53125 -36.171875 C 26.175781 -37.472656 25.921875 -38.789062 25.765625 -40.125 C 25.617188 -41.457031 25.296875 -42.726562 24.796875 -43.9375 C 24.691406 -43.738281 24.410156 -42.945312 23.953125 -41.5625 C 23.503906 -40.175781 22.976562 -38.53125 22.375 -36.625 C 21.78125 -34.71875 21.179688 -32.820312 20.578125 -30.9375 C 19.972656 -29.050781 19.476562 -27.46875 19.09375 -26.1875 C 18.71875 -24.90625 18.53125 -24.210938 18.53125 -24.109375 C 18.53125 -23.765625 18.816406 -23.550781 19.390625 -23.46875 C 19.972656 -23.394531 20.394531 -23.359375 20.65625 -23.359375 Z M 20.65625 -23.359375 "/></g></g></g><g fill="#000000" fill-opacity="1"><g transform="translate(594.742451, 202.073218)"><g><path d="M 39.1875 0.296875 C 38.78125 0.296875 38.351562 0.269531 37.90625 0.21875 C 37.457031 0.175781 37.03125 0.03125 36.625 -0.21875 C 35.914062 -0.675781 35.1875 -1.546875 34.4375 -2.828125 C 33.6875 -4.109375 32.945312 -5.578125 32.21875 -7.234375 C 31.488281 -8.890625 30.796875 -10.535156 30.140625 -12.171875 C 29.492188 -13.804688 28.878906 -15.238281 28.296875 -16.46875 C 27.722656 -17.695312 27.234375 -18.515625 26.828125 -18.921875 C 26.523438 -19.222656 26.007812 -19.472656 25.28125 -19.671875 C 24.550781 -19.867188 23.796875 -20.015625 23.015625 -20.109375 C 22.242188 -20.210938 21.628906 -20.265625 21.171875 -20.265625 C 20.316406 -20.265625 19.890625 -19.765625 19.890625 -18.765625 C 19.890625 -17.203125 20.023438 -15.65625 20.296875 -14.125 C 20.578125 -12.59375 20.71875 -11.023438 20.71875 -9.421875 C 20.71875 -8.960938 20.679688 -8.242188 20.609375 -7.265625 C 20.535156 -6.285156 20.410156 -5.242188 20.234375 -4.140625 C 20.054688 -3.035156 19.84375 -2.039062 19.59375 -1.15625 C 19.34375 -0.28125 19.066406 0.28125 18.765625 0.53125 C 18.566406 0.675781 18.316406 0.773438 18.015625 0.828125 C 17.710938 0.878906 17.4375 0.90625 17.1875 0.90625 C 16.632812 0.90625 15.800781 0.890625 14.6875 0.859375 C 13.582031 0.835938 12.425781 0.722656 11.21875 0.515625 C 10.019531 0.316406 8.992188 0.0195312 8.140625 -0.375 C 7.285156 -0.78125 6.859375 -1.359375 6.859375 -2.109375 C 6.859375 -3.710938 6.921875 -5.289062 7.046875 -6.84375 C 7.171875 -8.40625 7.234375 -9.96875 7.234375 -11.53125 C 7.234375 -12.582031 7.195312 -13.632812 7.125 -14.6875 C 7.050781 -15.75 7.015625 -16.804688 7.015625 -17.859375 C 7.015625 -19.515625 7.050781 -21.144531 7.125 -22.75 C 7.195312 -24.363281 7.179688 -26 7.078125 -27.65625 C 7.035156 -29.21875 6.882812 -30.773438 6.625 -32.328125 C 6.375 -33.890625 6.148438 -35.445312 5.953125 -37 C 5.703125 -39.257812 5.601562 -41.832031 5.65625 -44.71875 C 5.707031 -47.613281 5.734375 -50.289062 5.734375 -52.75 C 5.734375 -53.207031 5.742188 -53.757812 5.765625 -54.40625 C 5.785156 -55.0625 5.972656 -55.539062 6.328125 -55.84375 C 6.679688 -56.144531 7.394531 -56.359375 8.46875 -56.484375 C 9.550781 -56.609375 10.734375 -56.679688 12.015625 -56.703125 C 13.296875 -56.734375 14.414062 -56.734375 15.375 -56.703125 C 16.332031 -56.679688 16.882812 -56.671875 17.03125 -56.671875 C 18.6875 -56.671875 20.367188 -56.617188 22.078125 -56.515625 C 23.785156 -56.421875 25.46875 -56.320312 27.125 -56.21875 C 29.59375 -56.0625 31.804688 -55.796875 33.765625 -55.421875 C 35.722656 -55.046875 37.578125 -54.429688 39.328125 -53.578125 C 41.085938 -52.722656 42.847656 -51.441406 44.609375 -49.734375 C 45.109375 -49.285156 45.582031 -48.832031 46.03125 -48.375 C 46.488281 -47.925781 46.867188 -47.398438 47.171875 -46.796875 C 47.523438 -46.140625 47.765625 -45.421875 47.890625 -44.640625 C 48.015625 -43.867188 48.175781 -43.128906 48.375 -42.421875 C 48.53125 -41.816406 48.695312 -41.160156 48.875 -40.453125 C 49.050781 -39.753906 49.140625 -39.109375 49.140625 -38.515625 C 49.140625 -37.660156 48.988281 -36.789062 48.6875 -35.90625 C 48.382812 -35.03125 48.109375 -34.191406 47.859375 -33.390625 C 47.597656 -32.628906 47.351562 -31.875 47.125 -31.125 C 46.90625 -30.375 46.570312 -29.671875 46.125 -29.015625 C 45.664062 -28.359375 44.984375 -27.628906 44.078125 -26.828125 C 43.179688 -26.023438 42.34375 -25.21875 41.5625 -24.40625 C 40.78125 -23.601562 40.390625 -22.828125 40.390625 -22.078125 C 40.390625 -21.578125 40.648438 -20.722656 41.171875 -19.515625 C 41.703125 -18.304688 42.382812 -16.910156 43.21875 -15.328125 C 44.050781 -13.753906 44.914062 -12.132812 45.8125 -10.46875 C 46.71875 -8.8125 47.582031 -7.253906 48.40625 -5.796875 C 49.238281 -4.347656 49.921875 -3.128906 50.453125 -2.140625 C 50.984375 -1.160156 51.25 -0.597656 51.25 -0.453125 C 51.09375 -0.296875 50.5 -0.179688 49.46875 -0.109375 C 48.4375 -0.0351562 47.21875 0.0351562 45.8125 0.109375 C 44.40625 0.179688 43.085938 0.226562 41.859375 0.25 C 40.628906 0.28125 39.738281 0.296875 39.1875 0.296875 Z M 25.09375 -29.765625 C 25.34375 -29.765625 25.878906 -29.863281 26.703125 -30.0625 C 27.535156 -30.269531 28.453125 -30.535156 29.453125 -30.859375 C 30.460938 -31.179688 31.359375 -31.492188 32.140625 -31.796875 C 32.921875 -32.097656 33.382812 -32.328125 33.53125 -32.484375 C 33.882812 -32.679688 34.238281 -33.171875 34.59375 -33.953125 C 34.945312 -34.734375 35.257812 -35.5625 35.53125 -36.4375 C 35.8125 -37.3125 35.953125 -37.925781 35.953125 -38.28125 C 35.953125 -38.6875 35.773438 -39.265625 35.421875 -40.015625 C 35.066406 -40.765625 34.660156 -41.503906 34.203125 -42.234375 C 33.753906 -42.960938 33.351562 -43.429688 33 -43.640625 C 32.707031 -43.785156 32.003906 -43.957031 30.890625 -44.15625 C 29.785156 -44.363281 28.515625 -44.550781 27.078125 -44.71875 C 25.648438 -44.894531 24.347656 -45.046875 23.171875 -45.171875 C 21.992188 -45.296875 21.175781 -45.359375 20.71875 -45.359375 C 20.375 -45.359375 20.070312 -45.234375 19.8125 -44.984375 C 19.664062 -44.679688 19.59375 -44.332031 19.59375 -43.9375 C 19.59375 -42.320312 19.679688 -40.6875 19.859375 -39.03125 C 20.035156 -37.375 20.148438 -35.742188 20.203125 -34.140625 C 20.296875 -32.734375 20.414062 -31.710938 20.5625 -31.078125 C 20.71875 -30.453125 21.132812 -30.078125 21.8125 -29.953125 C 22.488281 -29.828125 23.582031 -29.765625 25.09375 -29.765625 Z M 25.09375 -29.765625 "/></g></g></g><g fill="#000000" fill-opacity="1"><g transform="translate(648.09115, 202.073218)"><g><path d="M 31.578125 -25.25 L 31.578125 -17.859375 C 31.578125 -16.453125 31.488281 -14.992188 31.3125 -13.484375 C 31.132812 -11.984375 30.992188 -10.503906 30.890625 -9.046875 C 30.890625 -8.992188 30.863281 -8.523438 30.8125 -7.640625 C 30.769531 -6.765625 30.671875 -5.734375 30.515625 -4.546875 C 30.367188 -3.367188 30.179688 -2.289062 29.953125 -1.3125 C 29.722656 -0.332031 29.4375 0.253906 29.09375 0.453125 C 28.84375 0.597656 28.566406 0.695312 28.265625 0.75 C 27.960938 0.800781 27.6875 0.828125 27.4375 0.828125 C 24.820312 0.828125 22.179688 0.550781 19.515625 0 C 18.304688 -0.300781 17.515625 -0.988281 17.140625 -2.0625 C 16.765625 -3.144531 16.601562 -4.351562 16.65625 -5.6875 C 16.707031 -7.019531 16.734375 -8.164062 16.734375 -9.125 C 16.734375 -11.832031 16.707031 -14.539062 16.65625 -17.25 C 16.601562 -19.96875 16.578125 -22.679688 16.578125 -25.390625 C 16.578125 -27.554688 16.738281 -29.691406 17.0625 -31.796875 C 17.394531 -33.910156 17.5625 -36.046875 17.5625 -38.203125 C 17.5625 -40.265625 17.535156 -41.785156 17.484375 -42.765625 C 17.429688 -43.742188 17.191406 -44.367188 16.765625 -44.640625 C 16.335938 -44.921875 15.570312 -45.035156 14.46875 -44.984375 C 13.363281 -44.941406 11.78125 -44.921875 9.71875 -44.921875 C 9.0625 -44.921875 8.269531 -44.878906 7.34375 -44.796875 C 6.414062 -44.722656 5.5 -44.710938 4.59375 -44.765625 C 3.6875 -44.816406 2.929688 -45.039062 2.328125 -45.4375 C 1.734375 -45.84375 1.4375 -46.5 1.4375 -47.40625 C 1.4375 -47.90625 1.457031 -48.617188 1.5 -49.546875 C 1.550781 -50.472656 1.664062 -51.425781 1.84375 -52.40625 C 2.019531 -53.382812 2.296875 -54.222656 2.671875 -54.921875 C 3.046875 -55.628906 3.5625 -55.984375 4.21875 -55.984375 C 5.269531 -55.984375 6.335938 -55.929688 7.421875 -55.828125 C 8.503906 -55.734375 9.570312 -55.6875 10.625 -55.6875 C 12.382812 -55.6875 14.15625 -55.847656 15.9375 -56.171875 C 17.71875 -56.503906 19.460938 -56.671875 21.171875 -56.671875 L 28.9375 -56.671875 C 31 -56.671875 33.070312 -56.617188 35.15625 -56.515625 C 37.238281 -56.421875 39.3125 -56.320312 41.375 -56.21875 C 41.875 -56.21875 42.515625 -56.175781 43.296875 -56.09375 C 44.078125 -56.019531 44.617188 -55.757812 44.921875 -55.3125 C 45.210938 -54.90625 45.429688 -54.160156 45.578125 -53.078125 C 45.734375 -52.003906 45.835938 -50.898438 45.890625 -49.765625 C 45.941406 -48.640625 45.96875 -47.800781 45.96875 -47.25 C 45.96875 -46.25 45.738281 -45.597656 45.28125 -45.296875 C 44.832031 -44.992188 44.269531 -44.878906 43.59375 -44.953125 C 42.914062 -45.023438 42.203125 -45.0625 41.453125 -45.0625 C 41.097656 -45.0625 40.441406 -45.0625 39.484375 -45.0625 C 38.535156 -45.0625 37.503906 -45.035156 36.390625 -44.984375 C 35.285156 -44.941406 34.304688 -44.832031 33.453125 -44.65625 C 32.597656 -44.476562 32.046875 -44.238281 31.796875 -43.9375 C 31.453125 -43.476562 31.226562 -42.820312 31.125 -41.96875 C 31.019531 -41.113281 30.941406 -40.410156 30.890625 -39.859375 C 30.847656 -39.109375 30.757812 -38.332031 30.625 -37.53125 C 30.5 -36.726562 30.4375 -35.945312 30.4375 -35.1875 C 30.4375 -33.53125 30.625 -31.882812 31 -30.25 C 31.382812 -28.625 31.578125 -26.957031 31.578125 -25.25 Z M 31.578125 -25.25 "/></g></g></g><g fill="#000000" fill-opacity="1"><g transform="translate(696.315956, 202.073218)"><g><path d="M 23.59375 1.578125 L 23.140625 1.578125 C 22.628906 1.578125 21.660156 1.363281 20.234375 0.9375 C 18.804688 0.507812 17.195312 -0.0390625 15.40625 -0.71875 C 13.625 -1.394531 11.90625 -2.109375 10.25 -2.859375 C 8.59375 -3.617188 7.210938 -4.3125 6.109375 -4.9375 C 5.003906 -5.5625 4.453125 -6.050781 4.453125 -6.40625 C 4.453125 -6.707031 4.75 -7.332031 5.34375 -8.28125 C 5.945312 -9.238281 6.675781 -10.242188 7.53125 -11.296875 C 8.382812 -12.359375 9.203125 -13.273438 9.984375 -14.046875 C 10.765625 -14.828125 11.304688 -15.21875 11.609375 -15.21875 C 11.960938 -15.21875 12.628906 -14.863281 13.609375 -14.15625 C 14.585938 -13.457031 15.84375 -12.753906 17.375 -12.046875 C 18.90625 -11.347656 20.675781 -11 22.6875 -11 C 23.082031 -11 23.65625 -11.1875 24.40625 -11.5625 C 25.164062 -11.945312 25.945312 -12.398438 26.75 -12.921875 C 27.550781 -13.453125 28.253906 -13.992188 28.859375 -14.546875 C 29.460938 -15.097656 29.789062 -15.550781 29.84375 -15.90625 C 29.738281 -16.507812 29.394531 -17.097656 28.8125 -17.671875 C 28.238281 -18.242188 27.726562 -18.707031 27.28125 -19.0625 C 26.726562 -19.5625 26.148438 -20.0625 25.546875 -20.5625 C 24.941406 -21.070312 24.335938 -21.550781 23.734375 -22 C 22.929688 -22.601562 22.003906 -23.066406 20.953125 -23.390625 C 19.898438 -23.722656 18.894531 -24.085938 17.9375 -24.484375 C 15.175781 -25.691406 12.835938 -27.085938 10.921875 -28.671875 C 9.015625 -30.253906 7.484375 -32.453125 6.328125 -35.265625 C 6.023438 -36.023438 5.6875 -36.90625 5.3125 -37.90625 C 4.9375 -38.90625 4.75 -39.8125 4.75 -40.625 C 4.75 -41.21875 4.910156 -41.890625 5.234375 -42.640625 C 5.566406 -43.398438 5.832031 -44.054688 6.03125 -44.609375 C 6.28125 -45.265625 6.554688 -45.976562 6.859375 -46.75 C 7.160156 -47.53125 7.5625 -48.175781 8.0625 -48.6875 C 8.914062 -49.632812 10.082031 -50.609375 11.5625 -51.609375 C 13.050781 -52.617188 14.671875 -53.5625 16.421875 -54.4375 C 18.179688 -55.320312 19.914062 -56.039062 21.625 -56.59375 C 23.332031 -57.144531 24.816406 -57.421875 26.078125 -57.421875 C 31.203125 -57.421875 35.722656 -55.941406 39.640625 -52.984375 C 40.035156 -52.679688 40.648438 -52.226562 41.484375 -51.625 C 42.316406 -51.019531 42.734375 -50.441406 42.734375 -49.890625 C 42.734375 -49.429688 42.441406 -48.773438 41.859375 -47.921875 C 41.285156 -47.066406 40.582031 -46.1875 39.75 -45.28125 C 38.925781 -44.382812 38.097656 -43.609375 37.265625 -42.953125 C 36.429688 -42.296875 35.789062 -41.96875 35.34375 -41.96875 C 34.382812 -41.96875 33.351562 -42.234375 32.25 -42.765625 C 31.144531 -43.296875 30.039062 -43.8125 28.9375 -44.3125 C 27.832031 -44.8125 26.773438 -45.0625 25.765625 -45.0625 C 25.367188 -45.0625 24.679688 -44.820312 23.703125 -44.34375 C 22.722656 -43.875 21.804688 -43.347656 20.953125 -42.765625 C 20.097656 -42.191406 19.671875 -41.703125 19.671875 -41.296875 C 19.671875 -40.742188 20.171875 -40.023438 21.171875 -39.140625 C 22.179688 -38.265625 23.488281 -37.3125 25.09375 -36.28125 C 26.695312 -35.25 28.425781 -34.191406 30.28125 -33.109375 C 32.144531 -32.035156 33.941406 -31.007812 35.671875 -30.03125 C 37.410156 -29.050781 38.921875 -28.171875 40.203125 -27.390625 C 41.484375 -26.609375 42.328125 -25.992188 42.734375 -25.546875 C 43.128906 -25.097656 43.566406 -24.269531 44.046875 -23.0625 C 44.523438 -21.851562 44.925781 -20.617188 45.25 -19.359375 C 45.582031 -18.109375 45.75 -17.15625 45.75 -16.5 C 45.75 -15.09375 45.382812 -13.597656 44.65625 -12.015625 C 43.925781 -10.429688 42.992188 -8.882812 41.859375 -7.375 C 40.734375 -5.875 39.515625 -4.546875 38.203125 -3.390625 C 36.898438 -2.234375 35.644531 -1.351562 34.4375 -0.75 C 33.78125 -0.445312 32.925781 -0.207031 31.875 -0.03125 C 30.820312 0.132812 29.71875 0.269531 28.5625 0.375 C 27.40625 0.476562 26.375 0.617188 25.46875 0.796875 C 24.5625 0.972656 23.9375 1.234375 23.59375 1.578125 Z M 23.59375 1.578125 "/></g></g></g></svg>